# xmcd
# 
# Track frame offsets:
#     150
#     10725
#     22838
#     36129
#     45888
#     56978
#     72778
#     82643
#     95529
#     108746
#     123986
#     141061
#     189628
# 
# Disc length: 2830
# 
# Revision: 1
# Processed by: cddbd v1.5.1PL0 Copyright (c) Steve Scherf et al.
# Submitted via: BonkEnc v1.0beta2
# 
DISCID=9e0b0c0d
DTITLE=The Blue Van - The Art Of Rolling
DYEAR=2005
DGENRE=Blues
TTITLE0=Word From The Bird
TTITLE1=Product Of DK
TTITLE2=I Remember The Days
TTITLE3=I Want You
TTITLE4=The Remains Of Sir Mason
TTITLE5=Baby, I've Got Time
TTITLE6=The Bluverture
TTITLE7=Revelation Of Love
TTITLE8=Mob Rule
TTITLE9=What The Young People Want
TTITLE10=Coeur De Lion
TTITLE11=New Slough
TTITLE12=DATA
EXTD=
EXTT0=
EXTT1=
EXTT2=
EXTT3=
EXTT4=
EXTT5=
EXTT6=
EXTT7=
EXTT8=
EXTT9=
EXTT10=
EXTT11=
EXTT12=
PLAYORDER=
